<mxfile host="app.diagrams.net" modified="2021-11-19T07:19:38.105Z" agent="5.0 (Windows NT 10.0; Win64; x64) AppleWebKit/537.36 (KHTML, like Gecko) Chrome/72.0.3626.119 Safari/537.36" etag="y9YrbQr66RdhPujFo9ui" version="15.6.8" type="github">
  <diagram id="jU45KLGDVSSTTNMErZR-" name="第 1 页">
    <mxGraphModel dx="1422" dy="762" grid="1" gridSize="10" guides="1" tooltips="1" connect="1" arrows="1" fold="1" page="1" pageScale="1" pageWidth="827" pageHeight="1169" math="0" shadow="0">
      <root>
        <mxCell id="0" />
        <mxCell id="1" parent="0" />
        <mxCell id="7Qf0ZauIl8IBRcPjyKfk-4" style="edgeStyle=orthogonalEdgeStyle;rounded=0;orthogonalLoop=1;jettySize=auto;html=1;" edge="1" parent="1" source="7Qf0ZauIl8IBRcPjyKfk-1" target="7Qf0ZauIl8IBRcPjyKfk-3">
          <mxGeometry relative="1" as="geometry" />
        </mxCell>
        <mxCell id="7Qf0ZauIl8IBRcPjyKfk-6" style="edgeStyle=orthogonalEdgeStyle;rounded=0;orthogonalLoop=1;jettySize=auto;html=1;entryX=0;entryY=0.5;entryDx=0;entryDy=0;entryPerimeter=0;" edge="1" parent="1" source="7Qf0ZauIl8IBRcPjyKfk-1" target="7Qf0ZauIl8IBRcPjyKfk-2">
          <mxGeometry relative="1" as="geometry" />
        </mxCell>
        <mxCell id="7Qf0ZauIl8IBRcPjyKfk-8" style="edgeStyle=orthogonalEdgeStyle;rounded=0;orthogonalLoop=1;jettySize=auto;html=1;entryX=0.008;entryY=0.617;entryDx=0;entryDy=0;entryPerimeter=0;" edge="1" parent="1" source="7Qf0ZauIl8IBRcPjyKfk-1" target="7Qf0ZauIl8IBRcPjyKfk-7">
          <mxGeometry relative="1" as="geometry">
            <Array as="points">
              <mxPoint x="280" y="180" />
              <mxPoint x="280" y="317" />
            </Array>
          </mxGeometry>
        </mxCell>
        <mxCell id="7Qf0ZauIl8IBRcPjyKfk-9" value="爬数据结束后触发同步服务" style="edgeLabel;html=1;align=center;verticalAlign=middle;resizable=0;points=[];" vertex="1" connectable="0" parent="7Qf0ZauIl8IBRcPjyKfk-8">
          <mxGeometry x="-0.2517" relative="1" as="geometry">
            <mxPoint y="26" as="offset" />
          </mxGeometry>
        </mxCell>
        <mxCell id="7Qf0ZauIl8IBRcPjyKfk-1" value="爬虫" style="rounded=1;whiteSpace=wrap;html=1;" vertex="1" parent="1">
          <mxGeometry x="350" y="150" width="120" height="60" as="geometry" />
        </mxCell>
        <mxCell id="7Qf0ZauIl8IBRcPjyKfk-2" value="本地db" style="shape=cylinder3;whiteSpace=wrap;html=1;boundedLbl=1;backgroundOutline=1;size=15;" vertex="1" parent="1">
          <mxGeometry x="600" y="140" width="60" height="80" as="geometry" />
        </mxCell>
        <mxCell id="7Qf0ZauIl8IBRcPjyKfk-5" style="edgeStyle=orthogonalEdgeStyle;rounded=0;orthogonalLoop=1;jettySize=auto;html=1;entryX=0.75;entryY=0;entryDx=0;entryDy=0;" edge="1" parent="1" source="7Qf0ZauIl8IBRcPjyKfk-3" target="7Qf0ZauIl8IBRcPjyKfk-1">
          <mxGeometry relative="1" as="geometry">
            <Array as="points">
              <mxPoint x="440" y="100" />
              <mxPoint x="440" y="100" />
            </Array>
          </mxGeometry>
        </mxCell>
        <mxCell id="7Qf0ZauIl8IBRcPjyKfk-3" value="汽车之家&lt;br&gt;" style="rounded=0;whiteSpace=wrap;html=1;" vertex="1" parent="1">
          <mxGeometry x="350" y="30" width="120" height="60" as="geometry" />
        </mxCell>
        <mxCell id="7Qf0ZauIl8IBRcPjyKfk-11" style="edgeStyle=orthogonalEdgeStyle;rounded=0;orthogonalLoop=1;jettySize=auto;html=1;" edge="1" parent="1" source="7Qf0ZauIl8IBRcPjyKfk-7" target="7Qf0ZauIl8IBRcPjyKfk-10">
          <mxGeometry relative="1" as="geometry" />
        </mxCell>
        <mxCell id="7Qf0ZauIl8IBRcPjyKfk-15" style="edgeStyle=orthogonalEdgeStyle;rounded=0;orthogonalLoop=1;jettySize=auto;html=1;" edge="1" parent="1" source="7Qf0ZauIl8IBRcPjyKfk-7" target="7Qf0ZauIl8IBRcPjyKfk-14">
          <mxGeometry relative="1" as="geometry">
            <Array as="points">
              <mxPoint x="370" y="480" />
            </Array>
          </mxGeometry>
        </mxCell>
        <mxCell id="7Qf0ZauIl8IBRcPjyKfk-7" value="投资回报率" style="rounded=1;whiteSpace=wrap;html=1;" vertex="1" parent="1">
          <mxGeometry x="350" y="280" width="120" height="60" as="geometry" />
        </mxCell>
        <mxCell id="7Qf0ZauIl8IBRcPjyKfk-12" style="edgeStyle=orthogonalEdgeStyle;rounded=0;orthogonalLoop=1;jettySize=auto;html=1;" edge="1" parent="1" source="7Qf0ZauIl8IBRcPjyKfk-10" target="7Qf0ZauIl8IBRcPjyKfk-2">
          <mxGeometry relative="1" as="geometry" />
        </mxCell>
        <mxCell id="7Qf0ZauIl8IBRcPjyKfk-13" style="edgeStyle=orthogonalEdgeStyle;rounded=0;orthogonalLoop=1;jettySize=auto;html=1;entryX=0.5;entryY=1;entryDx=0;entryDy=0;" edge="1" parent="1" source="7Qf0ZauIl8IBRcPjyKfk-10" target="7Qf0ZauIl8IBRcPjyKfk-7">
          <mxGeometry relative="1" as="geometry">
            <Array as="points">
              <mxPoint x="630" y="360" />
              <mxPoint x="410" y="360" />
            </Array>
          </mxGeometry>
        </mxCell>
        <mxCell id="7Qf0ZauIl8IBRcPjyKfk-10" value="爬虫数据服务" style="rounded=1;whiteSpace=wrap;html=1;" vertex="1" parent="1">
          <mxGeometry x="570" y="280" width="120" height="60" as="geometry" />
        </mxCell>
        <mxCell id="7Qf0ZauIl8IBRcPjyKfk-14" value="投资回报率db" style="shape=cylinder3;whiteSpace=wrap;html=1;boundedLbl=1;backgroundOutline=1;size=15;" vertex="1" parent="1">
          <mxGeometry x="340" y="490" width="60" height="80" as="geometry" />
        </mxCell>
        <mxCell id="7Qf0ZauIl8IBRcPjyKfk-16" value="第一步" style="text;html=1;strokeColor=none;fillColor=none;align=center;verticalAlign=middle;whiteSpace=wrap;rounded=0;fontColor=#FF4719;" vertex="1" parent="1">
          <mxGeometry x="360" y="150" width="60" height="30" as="geometry" />
        </mxCell>
        <mxCell id="7Qf0ZauIl8IBRcPjyKfk-17" value="第二步" style="text;html=1;strokeColor=none;fillColor=none;align=center;verticalAlign=middle;whiteSpace=wrap;rounded=0;fontColor=#FF4719;" vertex="1" parent="1">
          <mxGeometry x="600" y="140" width="60" height="30" as="geometry" />
        </mxCell>
        <mxCell id="7Qf0ZauIl8IBRcPjyKfk-18" value="第三步" style="text;html=1;strokeColor=none;fillColor=none;align=center;verticalAlign=middle;whiteSpace=wrap;rounded=0;fontColor=#FF4719;" vertex="1" parent="1">
          <mxGeometry x="354" y="280" width="60" height="30" as="geometry" />
        </mxCell>
        <mxCell id="7Qf0ZauIl8IBRcPjyKfk-19" value="第四步" style="text;html=1;strokeColor=none;fillColor=none;align=center;verticalAlign=middle;whiteSpace=wrap;rounded=0;fontColor=#FF4719;" vertex="1" parent="1">
          <mxGeometry x="570" y="280" width="60" height="30" as="geometry" />
        </mxCell>
        <mxCell id="7Qf0ZauIl8IBRcPjyKfk-20" value="第五步" style="text;html=1;strokeColor=none;fillColor=none;align=center;verticalAlign=middle;whiteSpace=wrap;rounded=0;fontColor=#FF4719;" vertex="1" parent="1">
          <mxGeometry x="320" y="460" width="60" height="30" as="geometry" />
        </mxCell>
      </root>
    </mxGraphModel>
  </diagram>
</mxfile>
